<svg width="66" height="85" viewBox="0 0 66 85" fill="none" xmlns="http://www.w3.org/2000/svg">
<path d="M63.6666 62.181C59.0818 56.5034 55.845 53.6131 55.845 37.9603C55.845 23.6263 48.6107 18.5195 42.6565 16.0392C41.8656 15.7105 41.1211 14.9554 40.8801 14.1335C39.8357 10.5368 36.9077 7.36835 33.0156 7.36835C29.1235 7.36835 26.1937 10.5386 25.16 14.1371C24.919 14.968 24.1745 15.7105 23.3836 16.0392C17.4222 18.5231 10.1951 23.6118 10.1951 37.9603C10.1862 53.6131 6.94931 56.5034 2.36451 62.181C0.464884 64.533 2.12884 68.0645 5.4514 68.0645H60.5976C63.9023 68.0645 65.5556 64.5221 63.6666 62.181ZM44.4419 68.0645V70.9548C44.4419 74.021 43.238 76.9617 41.0952 79.1298C38.9523 81.298 36.046 82.516 33.0156 82.516C29.9851 82.516 27.0788 81.298 24.936 79.1298C22.7931 76.9617 21.5893 74.021 21.5893 70.9548V68.0645" fill="#FCFCFC"/>
<path d="M44.4419 68.0645V70.9548C44.4419 74.0211 43.238 76.9617 41.0952 79.1298C38.9523 81.298 36.046 82.516 33.0156 82.516C29.9851 82.516 27.0788 81.298 24.936 79.1298C22.7931 76.9617 21.5893 74.0211 21.5893 70.9548V68.0645M63.6666 62.181C59.0818 56.5034 55.845 53.6131 55.845 37.9603C55.845 23.6263 48.6107 18.5195 42.6565 16.0392C41.8656 15.7105 41.1211 14.9554 40.8801 14.1335C39.8357 10.5368 36.9077 7.36835 33.0156 7.36835C29.1235 7.36835 26.1937 10.5386 25.16 14.1371C24.919 14.968 24.1745 15.7105 23.3836 16.0392C17.4222 18.5231 10.1951 23.6118 10.1951 37.9603C10.1862 53.6131 6.94931 56.5034 2.36451 62.181C0.464884 64.533 2.12884 68.0645 5.4514 68.0645H60.5976C63.9023 68.0645 65.5556 64.5221 63.6666 62.181Z" stroke="#F1ECEB" stroke-width="3" stroke-linecap="round" stroke-linejoin="round"/>
<circle cx="50.5737" cy="14.5219" r="12.3881" fill="#7DC0C4" stroke="#F1ECEB" stroke-width="3"/>
</svg>
