<svg width="67" height="84" viewBox="0 0 67 84" fill="none" xmlns="http://www.w3.org/2000/svg">
<path d="M64.5944 62.0346C60.0096 56.3569 56.7727 53.4666 56.7727 37.8139C56.7727 23.4798 49.5384 18.373 43.5843 15.8928C42.7933 15.564 42.0488 14.8089 41.8078 13.987C40.7634 10.3904 37.8354 7.22192 33.9433 7.22192C30.0512 7.22192 27.1214 10.3922 26.0877 13.9906C25.8467 14.8216 25.1022 15.564 24.3113 15.8928C18.35 18.3767 11.1228 23.4654 11.1228 37.8139C11.1139 53.4666 7.87705 56.3569 3.29224 62.0346C1.39262 64.3865 3.05657 67.9181 6.37913 67.9181H61.5253C64.8301 67.9181 66.4833 64.3757 64.5944 62.0346ZM45.3696 67.9181V70.8084C45.3696 73.8746 44.1658 76.8152 42.0229 78.9834C39.8801 81.1515 36.9738 82.3696 33.9433 82.3696C30.9129 82.3696 28.0065 81.1515 25.8637 78.9834C23.7208 76.8152 22.517 73.8746 22.517 70.8084V67.9181" fill="#FCFCFC"/>
<path d="M45.3696 67.9181V70.8084C45.3696 73.8746 44.1658 76.8152 42.0229 78.9834C39.8801 81.1515 36.9738 82.3696 33.9433 82.3696C30.9129 82.3696 28.0065 81.1515 25.8637 78.9834C23.7208 76.8152 22.517 73.8746 22.517 70.8084V67.9181M64.5944 62.0346C60.0096 56.3569 56.7727 53.4666 56.7727 37.8139C56.7727 23.4798 49.5384 18.373 43.5843 15.8928C42.7933 15.564 42.0488 14.8089 41.8078 13.987C40.7634 10.3904 37.8354 7.22192 33.9433 7.22192C30.0512 7.22192 27.1214 10.3922 26.0877 13.9906C25.8467 14.8216 25.1022 15.564 24.3113 15.8928C18.35 18.3767 11.1228 23.4654 11.1228 37.8139C11.1139 53.4666 7.87705 56.3569 3.29224 62.0346C1.39262 64.3865 3.05657 67.9181 6.37913 67.9181H61.5253C64.8301 67.9181 66.4833 64.3757 64.5944 62.0346Z" stroke="#F1EFEF" stroke-width="3" stroke-linecap="round" stroke-linejoin="round"/>
<circle cx="51.5014" cy="14.3754" r="12.3881" fill="#3050FA" stroke="#F1EFEF" stroke-width="3"/>
</svg>
