<svg width="170" height="215" viewBox="0 0 170 215" fill="none" xmlns="http://www.w3.org/2000/svg">
<rect width="168.984" height="214.169" transform="translate(0.574219 0.624023)" fill="#FCFCFC"/>
<circle cx="20.0891" cy="20.1389" r="4.93281" fill="#7DC0C4" stroke="#7DC0C4"/>
<path d="M31.9746 20.1387L76.0367 20.1389" stroke="#7DC0C4" stroke-linecap="round" stroke-linejoin="round"/>
<rect x="14.6562" y="35.4291" width="140.82" height="140.82" fill="#7DC0C4"/>
<path d="M18.6947 186.107C16.4647 186.107 14.6562 187.922 14.6562 190.161C14.6562 191.968 15.363 196.257 22.3196 200.593C22.4442 200.67 22.5873 200.711 22.7332 200.711C22.879 200.711 23.0221 200.67 23.1467 200.593C30.1034 196.257 30.8101 191.968 30.8101 190.161C30.8101 187.922 29.0017 186.107 26.7716 186.107C24.5416 186.107 22.7332 189.736 22.7332 189.736C22.7332 189.736 20.9248 186.107 18.6947 186.107Z" stroke="#7DC0C4" stroke-linecap="round" stroke-linejoin="round"/>
<path d="M54.1548 197.293L53.7316 197.026C53.662 197.137 53.6385 197.271 53.6662 197.399L54.1548 197.293ZM51.9492 199.533L52.1018 199.057C51.9586 199.011 51.8023 199.032 51.6763 199.114L51.9492 199.533ZM54.8409 200.46L54.6882 200.936C54.8583 200.991 55.0446 200.95 55.1769 200.83C55.3092 200.71 55.3674 200.529 55.3296 200.354L54.8409 200.46ZM54.7721 193.409C54.7721 194.739 54.3907 195.979 53.7316 197.026L54.578 197.559C55.3345 196.357 55.7721 194.933 55.7721 193.409H54.7721ZM47.97 186.607C51.7267 186.607 54.7721 189.652 54.7721 193.409H55.7721C55.7721 189.1 52.279 185.607 47.97 185.607V186.607ZM41.168 193.409C41.168 189.652 44.2134 186.607 47.97 186.607V185.607C43.6611 185.607 40.168 189.1 40.168 193.409H41.168ZM47.97 200.211C44.2134 200.211 41.168 197.166 41.168 193.409H40.168C40.168 197.718 43.6611 201.211 47.97 201.211V200.211ZM51.6763 199.114C50.6103 199.808 49.338 200.211 47.97 200.211V201.211C49.5376 201.211 50.9986 200.748 52.222 199.952L51.6763 199.114ZM54.9936 199.984L52.1018 199.057L51.7965 200.009L54.6882 200.936L54.9936 199.984ZM53.6662 197.399L54.3522 200.566L55.3296 200.354L54.6435 197.187L53.6662 197.399Z" fill="#7DC0C4"/>
<path d="M79.0074 186.838L65.1289 189.025L71.3076 192.637M79.0074 186.838L71.3076 192.637M79.0074 186.838L72.1546 199.979L71.3076 192.637" stroke="#7DC0C4" stroke-linecap="round" stroke-linejoin="round"/>
<path d="M142.475 186.473H154.772V200.346L148.623 194.784L142.475 200.346V186.473Z" stroke="#7DC0C4" stroke-linecap="round" stroke-linejoin="round"/>
</svg>
