<svg width="170" height="215" viewBox="0 0 170 215" fill="none" xmlns="http://www.w3.org/2000/svg">
<rect width="168.984" height="214.169" transform="translate(0.501953 0.477539)" fill="#FCFCFC"/>
<circle cx="20.0168" cy="19.9924" r="4.93281" fill="#3050FA" stroke="#3050FA"/>
<path d="M31.9023 19.9922L75.9645 19.9924" stroke="#3050FA" stroke-linecap="round" stroke-linejoin="round"/>
<rect x="14.584" y="35.2826" width="140.82" height="140.82" fill="#3050FA"/>
<path d="M18.6224 185.96C16.3924 185.96 14.584 187.775 14.584 190.014C14.584 191.821 15.2907 196.111 22.2474 200.447C22.372 200.524 22.515 200.565 22.6609 200.565C22.8068 200.565 22.9498 200.524 23.0744 200.447C30.0311 196.111 30.7378 191.821 30.7378 190.014C30.7378 187.775 28.9294 185.96 26.6994 185.96C24.4693 185.96 22.6609 189.589 22.6609 189.589C22.6609 189.589 20.8525 185.96 18.6224 185.96Z" stroke="#3050FA" stroke-linecap="round" stroke-linejoin="round"/>
<path d="M54.0826 197.146L53.6594 196.88C53.5897 196.991 53.5662 197.124 53.5939 197.252L54.0826 197.146ZM51.8769 199.386L52.0295 198.91C51.8863 198.864 51.7301 198.885 51.6041 198.967L51.8769 199.386ZM54.7686 200.313L54.616 200.79C54.7861 200.844 54.9724 200.804 55.1046 200.684C55.2369 200.564 55.2951 200.382 55.2573 200.208L54.7686 200.313ZM54.6998 193.263C54.6998 194.593 54.3185 195.832 53.6594 196.88L54.5058 197.412C55.2623 196.21 55.6998 194.787 55.6998 193.263H54.6998ZM47.8978 186.461C51.6544 186.461 54.6998 189.506 54.6998 193.263H55.6998C55.6998 188.954 52.2067 185.461 47.8978 185.461V186.461ZM41.0957 193.263C41.0957 189.506 44.1411 186.461 47.8978 186.461V185.461C43.5888 185.461 40.0957 188.954 40.0957 193.263H41.0957ZM47.8978 200.065C44.1411 200.065 41.0957 197.019 41.0957 193.263H40.0957C40.0957 197.572 43.5888 201.065 47.8978 201.065V200.065ZM51.6041 198.967C50.5381 199.661 49.2658 200.065 47.8978 200.065V201.065C49.4653 201.065 50.9263 200.602 52.1497 199.805L51.6041 198.967ZM54.9213 199.837L52.0295 198.91L51.7242 199.862L54.616 200.79L54.9213 199.837ZM53.5939 197.252L54.28 200.419L55.2573 200.208L54.5712 197.04L53.5939 197.252Z" fill="#3050FA"/>
<path d="M78.9352 186.692L65.0566 188.878L71.2353 192.49M78.9352 186.692L71.2353 192.49M78.9352 186.692L72.0823 199.833L71.2353 192.49" stroke="#3050FA" stroke-linecap="round" stroke-linejoin="round"/>
<path d="M142.402 186.326H154.7V200.199L148.551 194.637L142.402 200.199V186.326Z" stroke="#3050FA" stroke-linecap="round" stroke-linejoin="round"/>
</svg>
