<svg width="219" height="161" viewBox="0 0 219 161" fill="none" xmlns="http://www.w3.org/2000/svg">
<rect width="217.774" height="159.708" transform="translate(0.914062 0.480042)" fill="#FCFCFC"/>
<circle cx="24.1765" cy="21.0038" r="4.39234" stroke="#3050FA" stroke-linecap="round" stroke-linejoin="round"/>
<path d="M31.3097 35.641C31.3097 33.7495 30.5583 31.9355 29.2208 30.598C27.8833 29.2605 26.0693 28.5092 24.1778 28.5092C22.2863 28.5092 20.4723 29.2605 19.1348 30.598C17.7973 31.9355 17.0459 33.7495 17.0459 35.641L24.1778 35.641H31.3097Z" stroke="#3050FA" stroke-linecap="round" stroke-linejoin="round"/>
<circle cx="53.1036" cy="26.3069" r="9.34335" fill="#3050FA" stroke="#3050FA" stroke-width="0.704102"/>
<circle cx="75.7208" cy="26.3069" r="9.34335" fill="#3050FA" stroke="#3050FA" stroke-width="0.704102"/>
<circle cx="98.338" cy="26.3069" r="9.34335" fill="#3050FA" stroke="#3050FA" stroke-width="0.704102"/>
<circle cx="120.955" cy="26.3069" r="9.34335" fill="#3050FA" stroke="#3050FA" stroke-width="0.704102"/>
<circle cx="143.572" cy="26.3069" r="9.34335" fill="#3050FA" stroke="#3050FA" stroke-width="0.704102"/>
<path d="M43.4082 44.068L202.557 44.0687" stroke="#3050FA" stroke-linecap="round" stroke-linejoin="round"/>
<path d="M21.0844 68.2656C18.8543 68.2656 17.0459 70.0803 17.0459 72.3192C17.0459 74.1266 17.7526 78.416 24.7093 82.7521C24.8339 82.829 24.977 82.8697 25.1228 82.8697C25.2687 82.8697 25.4117 82.829 25.5364 82.7521C32.493 78.416 33.1997 74.1266 33.1997 72.3192C33.1997 70.0803 31.3913 68.2656 29.1613 68.2656C26.9312 68.2656 25.1228 71.8944 25.1228 71.8944C25.1228 71.8944 23.3144 68.2656 21.0844 68.2656Z" stroke="#3050FA" stroke-linecap="round" stroke-linejoin="round"/>
<circle cx="54.1876" cy="77.961" r="9.34335" fill="#3050FA" stroke="#3050FA" stroke-width="0.704102"/>
<circle cx="76.8048" cy="77.961" r="9.34335" fill="#3050FA" stroke="#3050FA" stroke-width="0.704102"/>
<circle cx="99.422" cy="77.961" r="9.34335" fill="#3050FA" stroke="#3050FA" stroke-width="0.704102"/>
<circle cx="122.039" cy="77.961" r="9.34335" fill="#3050FA" stroke="#3050FA" stroke-width="0.704102"/>
<circle cx="144.656" cy="77.961" r="9.34335" fill="#3050FA" stroke="#3050FA" stroke-width="0.704102"/>
<path d="M44.4922 95.7222L201.553 95.7229" stroke="#3050FA" stroke-linecap="round" stroke-linejoin="round"/>
<rect x="44.4922" y="107.015" width="157.061" height="37.0417" fill="#3050FA"/>
</svg>
