<svg width="219" height="161" viewBox="0 0 219 161" fill="none" xmlns="http://www.w3.org/2000/svg">
<rect width="217.774" height="159.708" transform="translate(0.986328 0.626526)" fill="#FCFCFC"/>
<circle cx="24.2488" cy="21.1503" r="4.39234" stroke="#7DC0C4" stroke-linecap="round" stroke-linejoin="round"/>
<path d="M31.3819 35.7876C31.3819 33.8961 30.6305 32.0821 29.2931 30.7446C27.9556 29.4071 26.1415 28.6557 24.2501 28.6557C22.3586 28.6557 20.5445 29.4071 19.207 30.7446C17.8696 32.0821 17.1182 33.8961 17.1182 35.7876L24.2501 35.7876H31.3819Z" stroke="#7DC0C4" stroke-linecap="round" stroke-linejoin="round"/>
<circle cx="53.1759" cy="26.4534" r="9.34335" fill="#7DC0C4" stroke="#7DC0C4" stroke-width="0.704102"/>
<circle cx="75.7931" cy="26.4534" r="9.34335" fill="#7DC0C4" stroke="#7DC0C4" stroke-width="0.704102"/>
<circle cx="98.4102" cy="26.4534" r="9.34335" fill="#7DC0C4" stroke="#7DC0C4" stroke-width="0.704102"/>
<circle cx="121.027" cy="26.4534" r="9.34335" fill="#7DC0C4" stroke="#7DC0C4" stroke-width="0.704102"/>
<circle cx="143.645" cy="26.4534" r="9.34335" fill="#7DC0C4" stroke="#7DC0C4" stroke-width="0.704102"/>
<path d="M43.4805 44.2145L202.63 44.2152" stroke="#7DC0C4" stroke-linecap="round" stroke-linejoin="round"/>
<path d="M21.1566 68.4122C18.9266 68.4122 17.1182 70.2269 17.1182 72.4658C17.1182 74.2731 17.8249 78.5626 24.7815 82.8987C24.9062 82.9756 25.0492 83.0162 25.1951 83.0162C25.341 83.0162 25.484 82.9756 25.6086 82.8987C32.5653 78.5626 33.272 74.2731 33.272 72.4658C33.272 70.2269 31.4636 68.4122 29.2336 68.4122C27.0035 68.4122 25.1951 72.0409 25.1951 72.0409C25.1951 72.0409 23.3867 68.4122 21.1566 68.4122Z" stroke="#7DC0C4" stroke-linecap="round" stroke-linejoin="round"/>
<circle cx="54.2599" cy="78.1076" r="9.34335" fill="#7DC0C4" stroke="#7DC0C4" stroke-width="0.704102"/>
<circle cx="76.877" cy="78.1076" r="9.34335" fill="#7DC0C4" stroke="#7DC0C4" stroke-width="0.704102"/>
<circle cx="99.4942" cy="78.1076" r="9.34335" fill="#7DC0C4" stroke="#7DC0C4" stroke-width="0.704102"/>
<circle cx="122.111" cy="78.1076" r="9.34335" fill="#7DC0C4" stroke="#7DC0C4" stroke-width="0.704102"/>
<circle cx="144.729" cy="78.1076" r="9.34335" fill="#7DC0C4" stroke="#7DC0C4" stroke-width="0.704102"/>
<path d="M44.5645 95.8687L201.625 95.8694" stroke="#7DC0C4" stroke-linecap="round" stroke-linejoin="round"/>
<rect x="44.5645" y="107.161" width="157.061" height="37.0417" fill="#7DC0C4"/>
</svg>
